<?xml version="1.0" standalone="no"?>
<!DOCTYPE svg PUBLIC "-//W3C//DTD SVG 20010904//EN"
 "http://www.w3.org/TR/2001/REC-SVG-20010904/DTD/svg10.dtd">
<svg version="1.0" xmlns="http://www.w3.org/2000/svg"
 width="570.000000pt" height="570.000000pt" viewBox="0 0 570.000000 570.000000"
 preserveAspectRatio="xMidYMid meet">
<metadata>
Created by potrace 1.14, written by Peter Selinger 2001-2017
</metadata>
<g transform="translate(0.000000,570.000000) scale(0.100000,-0.100000)"
fill="#000000" stroke="none">
<path d="M3180 5229 c-135 -32 -285 -114 -372 -203 l-46 -48 -34 25 c-166 124
-433 162 -677 95 -285 -78 -531 -293 -638 -559 -14 -35 -30 -67 -35 -70 -5 -3
-29 0 -55 6 -41 10 -184 12 -223 2 -242 -58 -414 -195 -532 -422 -60 -115 -82
-210 -83 -353 0 -123 0 -123 -25 -128 -14 -3 -45 -12 -70 -20 -244 -77 -381
-395 -280 -651 13 -32 27 -62 31 -67 4 -4 -8 -29 -26 -55 -32 -46 -85 -144
-85 -158 0 -5 -6 -24 -12 -43 -20 -57 -16 -292 6 -365 57 -185 156 -321 306
-419 36 -24 81 -49 100 -56 19 -8 61 -38 93 -67 115 -105 254 -162 405 -165
109 -2 167 6 245 36 88 34 197 98 197 117 0 5 23 -9 51 -30 126 -95 319 -107
473 -29 47 24 56 31 114 86 35 33 48 40 53 29 5 -7 28 -41 52 -74 138 -187
397 -274 647 -218 81 19 224 81 276 120 18 14 36 25 41 25 15 -1 130 -162 228
-320 160 -257 226 -345 339 -454 137 -131 444 -346 495 -346 10 0 26 9 35 19
20 22 15 53 -14 86 -35 40 -119 172 -152 240 -52 104 -70 167 -70 248 -1 73 5
95 79 292 33 89 52 160 57 220 4 46 -1 45 111 15 149 -39 321 -32 479 21 258
87 496 299 599 536 39 87 66 203 69 288 l3 72 52 27 c129 68 238 212 290 383
32 107 23 364 -17 458 -4 11 -15 40 -24 64 -29 75 -115 198 -186 263 -56 52
-166 128 -203 141 -5 1 -11 27 -13 57 -7 107 -66 247 -143 343 -80 98 -205
178 -340 215 l-63 18 -3 49 c-3 74 -20 125 -63 191 -67 104 -184 184 -311 214
-65 15 -212 8 -263 -13 l-35 -15 -22 38 c-80 143 -250 264 -431 309 -101 24
-278 25 -380 0z"/>
</g>
</svg>
